PathFileType	4	(X/Y/Z)	pose_F01_0-96.trc
DataRate	CameraRate	NumFrames	NumMarkers	Units	OrigDataRate	OrigDataStartFrame	OrigNumFrames
30	30	5	21	m	30	24	96
Frame#	Time	CHip			RHip			RKnee			RAnkle			RBigToe			RSmallToe			RHeel			LHip			LKnee			LAnkle			LBigToe			LSmallToe			LHeel			Neck			Nose			RShoulder			RElbow			RWrist			LShoulder			LElbow			LWrist			
		X1	Y1	Z1	X2	Y2	Z2	X3	Y3	Z3	X4	Y4	Z4	X5	Y5	Z5	X6	Y6	Z6	X7	Y7	Z7	X8	Y8	Z8	X9	Y9	Z9	X10	Y10	Z10	X11	Y11	Z11	X12	Y12	Z12	X13	Y13	Z13	X14	Y14	Z14	X15	Y15	Z15	X16	Y16	Z16	X17	Y17	Z17	X18	Y18	Z18	X19	Y19	Z19	X20	Y20	Z20	X21	Y21	Z21	
24	0.8	-0.19364600511377342	1.8788680565283005	-0.5552044491532843	-0.202979859910708	1.8769114794644057	-0.48426689912161525	-0.19645276941812506	1.7282983633119613	-0.4665313771937353	-0.19640492367251794	1.5823669554497997	-0.4448797609560302							-0.18964468465606726	1.5751980321403436	-0.4521793537740347	-0.17641845825390715	1.881783244291862	-0.6125169065596914	-0.16675834790135619	1.7302999150905365	-0.6003850460212669	-0.15854711593951584	1.5834923413827549	-0.5872309367193489	-0.1921993735684509	1.5433883748374664	-0.6200981714983462	-0.17514993859517522	1.5515284474070166	-0.6379236346067045	-0.15063928868974277	1.5708844685930625	-0.5681075452319593	-0.1806903928825507	2.0507401353639514	-0.562341712469024	-0.21438329597081074	2.12429707269507	-0.5839549173958144	-0.1979018467975968	2.0492110801716694	-0.47615372762071884	-0.2019925875577065	1.9551623779833998	-0.4477452639034378	-0.21807154895006106	1.8771134918003394	-0.42168785101410944	-0.16099550042797753	2.053671574169003	-0.6483706017772288	-0.15390575627558636	1.9706436741486038	-0.6745257840834858	-0.16476212435482115	1.8835068947693003	-0.671416414149224
25	0.8333333333333334	-0.19286261828849793	1.878857240524547	-0.5520084454155707	-0.20290193273636653	1.8755516813217992	-0.48391251352278203	-0.19668127897410834	1.7297955915531407	-0.4666345153163801	-0.19427153432834937	1.5814633981751456	-0.44730541095616516							-0.18550364581686957	1.5692412437825345	-0.4518251371832116	-0.1787189474507985	1.8804816037174132	-0.6099389318304516	-0.1693224731570101	1.7302148892190465	-0.5977534860196484	-0.15857751223495745	1.5834752867326316	-0.5871514957975732	-0.19458808526703142	1.5420361535405596	-0.6173530855380277	-0.17707015456700073	1.5499583707707596	-0.6359644890618159	-0.1509144454538401	1.572312440554671	-0.5678411868196921	-0.18272943207732298	2.0507279237167966	-0.5601773424047399	-0.2143744832483298	2.1267163073885538	-0.5852173336328017	-0.19995324137170856	2.048074710470762	-0.47422270209321643	-0.2039215521605699	1.9551012043378793	-0.4456329754432601	-0.22008445954851805	1.8783599399203825	-0.41982431717154406	-0.1631205141385581	2.053575995644847	-0.646063215682187	-0.1540528343878805	1.9699162784856508	-0.6750038522729648	-0.17409144088361525	1.8892990077197325	-0.6658565040973246
26	0.8666666666666667	-0.1945092396600079	1.8813050052230853	-0.5500892575960805	-0.20257230516444816	1.8779338264434635	-0.48415514834275986	-0.19881224416361457	1.7280083903840375	-0.46407379007252364	-0.1952091510424907	1.5810008089184708	-0.4419268478817214							-0.18641915078908086	1.568876523529344	-0.4462840453825726	-0.17851291682316228	1.8841231677931225	-0.6104415040311428	-0.1689760553757509	1.7302116532641632	-0.5982831389770266	-0.15858267577424037	1.5835417963813685	-0.5872427302538091	-0.18999577405469664	1.5435859504834646	-0.6225087085511087	-0.17268775829678462	1.5500688506491282	-0.6405871698614546	-0.15271611739093663	1.5734901531980852	-0.5662257300211139	-0.18466983615825144	2.0530609775927124	-0.5583786299690713	-0.21230647886701778	2.129211353118554	-0.5876537289815253	-0.20182524929031134	2.0489768712921728	-0.47198734178175844	-0.20491836829276225	1.958976038161303	-0.4495107823931395	-0.22077245633517825	1.8809766836051445	-0.4231289171338145	-0.16308764604946482	2.055903974025291	-0.6463789287929715	-0.14958281808571633	1.9720342245287015	-0.6796436859902231	-0.185240222593724	1.897309975608802	-0.6701955501697032
27	0.9	-0.19350424611359118	1.8827579929071652	-0.5556854538659859	-0.20562667895994474	1.8795973281532574	-0.485549921350713	-0.200721610070728	1.7320165013555529	-0.46255005481595474	-0.19545901235219176	1.5818209501651437	-0.4418019307240612							-0.18651440688076226	1.5691833396923835	-0.44617396836592776	-0.176309354678654	1.8845156411158	-0.6129135021050862	-0.17167608485099278	1.7314744982624095	-0.599506931093878	-0.1591778904214032	1.5848744682774873	-0.5909214859341433	-0.18962834532596243	1.5447049233970391	-0.6230672779187063	-0.17242561933481576	1.5513392619420447	-0.6411325727355422	-0.1503519019509329	1.5748586076270124	-0.5690566523017027	-0.1846941780605391	2.053187478674153	-0.558437655652315	-0.21418409214932116	2.1315544553572447	-0.5860062267459762	-0.202871873507097	2.0502743300064203	-0.4755514900850807	-0.20689652181186932	1.9629121732902999	-0.4483054147387131	-0.2248046931470346	1.8847359260508316	-0.419610125304772	-0.1630741670234769	2.055856630494786	-0.6464248858591076	-0.14708990964021343	1.975905114503522	-0.6822986928520325	-0.189883425767092	1.9245366140440285	-0.6748987928436564
28	0.9333333333333333	-0.18956189087292652	1.8852260652198334	-0.551958973756151	-0.20258804068455064	1.882015763517501	-0.48493388385948005	-0.20393095817101403	1.7310159027872545	-0.46333955805432475	-0.1976428518326503	1.5803126623691715	-0.4390919547958697							-0.1884654656016419	1.5690467159263395	-0.4439720874167192	-0.17331305801954555	1.8869533806569778	-0.6122265292844541	-0.17497819911808685	1.7329828014931992	-0.6006285212236341	-0.15965355401973577	1.5875385972342415	-0.5906166822106509	-0.1896968350997734	1.544847275286815	-0.6231316723331671	-0.1734103749423391	1.551768591030632	-0.6442766462583653	-0.15039251765032147	1.5747935607386445	-0.5690975633580762	-0.18560720985209006	2.055811202355047	-0.5618531120841685	-0.2151635844778823	2.1318043355998975	-0.5889868781760701	-0.20680635336728123	2.0550572465991457	-0.4814340383071062	-0.20496109493767464	1.968246921090082	-0.451548835399737	-0.22545275745964047	1.8931098078452755	-0.42152573476138694	-0.16312508979863588	2.058186211529441	-0.646696618507232	-0.14666281753920754	1.9820981098951305	-0.6809213670145713	-1.4430165319909318	1.8743512721244513	0.6435233278822611
